<svg version="1.0" xmlns="http://www.w3.org/2000/svg" width="933.333" height="933.333" viewBox="0 0 700 700"><path d="M321.5 1.1c-73.2 6.4-141 34.3-196.5 81-13.4 11.3-34.5 32.5-45.2 45.5C41.4 174.2 15.2 231.5 5.1 291 1.5 312.4.5 324.2.5 350c0 14.5.6 30.3 1.3 36.5 9.9 84.4 44.9 156.1 104.3 214 57 55.5 126.2 88.1 207.4 97.7 16.7 1.9 59.7 1.6 77-.6 53-6.7 98.5-22.5 142.5-49.3 22.8-14 41.2-28.4 61.8-48.7 58-56.9 92.3-126.7 102.8-209.1 2.5-19.5 2.5-61.5 0-81-7.8-61-28.5-114.9-62.8-162.8-21.5-30-51.7-60.2-81.4-81.5C504.7 30.5 449.1 9.2 387.5 2c-12.6-1.5-52.8-2.1-66-.9zm65.6 38.4C475.3 50.3 553.7 96.8 605 169c66.7 93.7 76.3 217.4 24.9 320.1C598.5 551.9 550 600 486.8 631c-43.8 21.5-87.1 31.4-137.3 31.3-39.2 0-73-6-107.8-18.9-75.1-28-135.7-82.4-171.5-154.1C22 393 27 278.4 83.4 186.6c30.5-49.7 74.3-89.9 126.5-116 38.1-19.1 78.3-29.9 123.1-33 10.3-.7 41.6.4 54.1 1.9z"/><path d="M334.1 111.1c-13.2 3.4-25.7 12.1-32.8 22.7-2.1 3.1-11 19.8-19.7 37-17.5 34.4-21.8 40.5-34 48.3-9.5 6.3-15.1 7.7-51.5 13.5-39.1 6.2-40.3 6.5-48.9 10.5-13.6 6.5-25.4 20.1-30.3 35-3.3 10.2-3.4 26.2-.2 36.4 3.8 12 8.6 18.1 37.8 47.5 24.8 25.1 27.5 28.2 30.8 35 4.7 9.6 6.7 17.6 6.7 26.6 0 3.9-2.3 21.2-5 38.5-6.5 40.6-6.6 42.6-4.6 52.9 4.2 20.4 17.8 36.6 37.1 44.1 6.5 2.6 9.9 3.3 18 3.7 15.2.7 18.4-.4 58-20.2 19.8-9.9 37.4-18 40.5-18.8 7.9-1.8 22.3-1.5 29.5.6 3.3 1 21.1 9.4 39.5 18.7 19.3 9.8 36 17.6 39.5 18.4 7.6 1.9 20.4 1.9 28 0 15.5-3.9 31.2-16 38.3-29.2 4-7.7 7.2-19.7 7.2-27.6 0-3.2-2.5-21.6-5.5-40.7s-5.5-37.2-5.5-40.1c0-8.3 2.6-18.4 6.7-26.8 3.4-6.9 6.2-10.1 32.3-36.6 24.5-24.9 29.1-30 32.3-36.1 4.6-8.9 6.7-17.6 6.7-27.9 0-25.8-17-49.3-41-56.5-3.6-1.1-21.8-4.4-40.6-7.4-18.7-3-36.2-6.2-39-7.1-8.4-2.9-15.6-7.6-22.9-14.9-6.7-6.8-7.8-8.6-25-42.1-17.1-33.3-18.3-35.3-25-42.1-14.9-15.1-36.5-20.8-57.4-15.3z"/></svg>