<svg aria-hidden="true" style="width:0;height:0;position:absolute;overflow:hidden" xmlns="http://www.w3.org/2000/svg"><defs><symbol id="icon-left" viewBox="0 0 18 32"><path d="m.48 16.965 14.861 14.16a1.334 1.334 0 0 0 1.84 0l.016-.016a1.237 1.237 0 0 0 .382-.889 1.22 1.22 0 0 0-.382-.889L3.202 15.998 17.197 2.67a1.222 1.222 0 0 0 .282-1.373 1.231 1.231 0 0 0-.282-.405l-.016-.016a1.336 1.336 0 0 0-1.84 0L.48 15.036a1.331 1.331 0 0 0 0 1.93z"/></symbol><symbol id="icon-right" viewBox="0 0 18 32"><path d="M17.653 15.035 2.792.875a1.334 1.334 0 0 0-1.84 0L.936.891a1.222 1.222 0 0 0-.282 1.373c.065.153.162.291.282.405l13.995 13.333L.936 29.33a1.212 1.212 0 0 0-.381.889 1.236 1.236 0 0 0 .381.889l.016.016a1.334 1.334 0 0 0 1.84 0l14.861-14.16a1.331 1.331 0 0 0 0-1.93z"/></symbol><symbol id="icon-logo" viewBox="0 0 44 32"><path fill="#ffe553" style="fill:var(--color4,#ffe553)" d="M16.495 6.456c1.013-1.982 3.846-1.982 4.86 0l1.283 2.51a2.731 2.731 0 0 0 2.002 1.453l2.78.441c2.202.35 3.078 3.049 1.501 4.625l-1.984 1.983a2.728 2.728 0 0 0-.766 2.356l.438 2.773c.348 2.2-1.945 3.868-3.931 2.859l-2.517-1.278a2.73 2.73 0 0 0-2.471 0l-2.517 1.278c-1.986 1.009-4.279-.659-3.931-2.859l.438-2.773a2.732 2.732 0 0 0-.766-2.356l-1.983-1.983c-1.577-1.576-.701-4.275 1.501-4.625l2.78-.441a2.731 2.731 0 0 0 2.002-1.453l1.283-2.51z"/><path fill="#2c2c2c" style="fill:var(--color3,#2c2c2c)" d="m3.476 20.533-.021.005a31 31 0 0 1-.011.9c-.003.524-.004.868-.002 1.032 0 .157-.003.285-.01.384l.001.336c-.001.12-.008.219-.02.296l-.018.206c-.014.13-.042.201-.085.211-.092.022-.236-.049-.432-.212-.197-.17-.311-.319-.341-.447s-.038-1.06-.024-2.798c.021-1.74-.025-2.884-.14-3.432a.415.415 0 0 1 .014-.273c.036-.165.219-.321.551-.467.339-.147.845-.3 1.518-.459.68-.161 1.219-.25 1.619-.27.406-.021.625.032.655.159.02.085-.026.159-.138.223s-.212.117-.299.16a28.49 28.49 0 0 1-.349.138c-.145.049-.28.096-.404.14a11.76 11.76 0 0 0-.489.16c-.193.068-.372.133-.537.194-.167.054-.391.133-.673.237s-.465.169-.548.197c.012.02.023.051.033.093.079.333.122 1.13.129 2.392.444-.082.913-.204 1.405-.365.5-.163.806-.258.92-.284.269-.064.417-.039.444.075.052.219-.212.476-.793.77a8.668 8.668 0 0 1-1.955.697zm6.935-1.951a2.015 2.015 0 0 0-.278-.652c-.13-.201-.281-.334-.453-.398-.457.25-.788.728-.995 1.435-.201.698-.237 1.32-.108 1.865s.344.853.645.924c.486-.219.836-.668 1.049-1.347.219-.687.265-1.296.139-1.827zm-2.772.755c.117-.611.332-1.14.645-1.588.318-.456.686-.734 1.104-.833.425-.1.822-.003 1.191.291.367.287.612.689.735 1.206.121.51.121 1.063.001 1.66a3.774 3.774 0 0 1-.716 1.571c-.35.449-.769.731-1.258.846-.361.085-.702-.01-1.021-.286s-.54-.669-.661-1.179c-.122-.517-.129-1.08-.019-1.689zm7.585-1.892a2.015 2.015 0 0 0-.278-.652c-.13-.201-.281-.334-.453-.398-.457.25-.788.728-.995 1.435-.201.698-.237 1.32-.108 1.865s.344.853.645.924c.486-.22.836-.669 1.049-1.347.219-.687.265-1.296.139-1.827zm-2.771.756c.117-.611.332-1.14.645-1.588.318-.456.686-.734 1.104-.833.425-.1.822-.003 1.191.291.367.287.612.689.735 1.206.121.51.121 1.063.001 1.66a3.774 3.774 0 0 1-.716 1.571c-.35.449-.769.731-1.258.846-.361.085-.702-.01-1.021-.286s-.54-.669-.661-1.179c-.122-.517-.129-1.08-.019-1.689zm7.791-6.988c.113-.027.277.047.49.221.219.165.35.34.393.524s.079.729.107 1.635c.026.899.031 1.836.016 2.811-.02 2.188-.111 3.301-.274 3.34-.099.023-.223-.011-.372-.103-.143-.101-.226-.197-.248-.289s-.041-.282-.057-.57c-.526.872-1.048 1.369-1.565 1.491-.312.074-.628-.001-.951-.224-.315-.225-.509-.489-.581-.794-.104-.439-.111-.987-.02-1.644.096-.666.309-1.299.638-1.9s.745-.961 1.247-1.08.925.1 1.266.655c.005-1.586-.077-2.819-.248-3.699-.05-.212.002-.337.158-.374zm.067 5.491c-.091-.382-.234-.689-.431-.919-.19-.232-.376-.326-.561-.283-.305.072-.572.333-.801.784s-.382.943-.458 1.476c-.07.525-.063.965.021 1.319.03.127.101.219.211.275s.23.069.357.039c.276-.065.601-.351.974-.858a3.565 3.565 0 0 0 .698-1.645l.002-.135-.013-.053zm6.783-.636c.138.581-.009 1.131-.439 1.651-.432.513-.988.85-1.668 1.011-.673.159-1.27.117-1.791-.127-.523-.25-.821-.531-.895-.843-.05-.212-.012-.334.116-.364.113-.027.377.091.79.352.156.09.353.163.59.219.245.054.488.053.728-.004a2.382 2.382 0 0 0 1.227-.693c.329-.347.458-.669.388-.966-.045-.191-.231-.405-.556-.643s-.675-.45-1.049-.639c-.368-.197-.716-.418-1.043-.662s-.512-.455-.554-.632c-.042-.177-.051-.373-.027-.588s.067-.379.131-.491c.204-.37.566-.751 1.087-1.143.527-.394.989-.637 1.386-.731.205-.048.395-.022.568.079s.278.226.313.375c.017.071-.044.145-.183.223s-.352.188-.64.33a5.273 5.273 0 0 0-.741.422c-.741.504-1.077.901-1.008 1.191.037.156.554.493 1.553 1.013.384.201.747.455 1.09.763.348.299.557.598.627.895zm2.44.534c.032.135.126.183.282.147.269-.064.577-.215.924-.454.353-.248.55-.377.593-.387.127-.03.207.022.239.157.049.205-.108.493-.469.862-.354.368-.705.593-1.052.674-.34.08-.645.055-.915-.075-.272-.138-.431-.306-.478-.504s-.064-.46-.051-.784c.011-.332.035-.767.072-1.307.042-.548.07-1 .083-1.354-.314.156-.528.248-.642.275s-.24-.003-.38-.09c-.135-.095-.215-.196-.24-.302-.04-.17.381-.441 1.265-.815a7.64 7.64 0 0 0-.179-1.606c-.05-.212-.005-.335.137-.369.12-.028.288.014.502.128.212.107.341.256.386.447s.065.542.059 1.052c.395-.131.713-.224.954-.281.425-.1.659-.058.703.126.025.106-.071.222-.288.348-.21.124-.665.348-1.367.67-.016.595-.052 1.28-.107 2.055-.057.769-.067 1.231-.03 1.387zm4.747-5.562c.319-.075.651.018.998.28.345.255.548.514.61.776.06.255.034.538-.079.849.11.086.174.168.193.246.047.198.081.549.104 1.052.029.502.051.829.065.983a3.387 3.387 0 0 1 .05.638c.014.184-.029.287-.128.311-.127.03-.26-.055-.397-.254-.132-.208-.246-.488-.345-.838-.441.949-.93 1.487-1.468 1.614-.326.077-.681.015-1.065-.186-.379-.21-.603-.463-.674-.761-.101-.425-.069-.986.095-1.682.162-.704.433-1.358.813-1.964s.79-.96 1.229-1.064zm.932 1.754c-.156-.659-.365-.957-.627-.895-.276.065-.551.339-.826.823-.276.476-.483.993-.62 1.548s-.172.979-.103 1.269c.029.12.102.208.219.262a.606.606 0 0 0 .376.023c.333-.079.655-.39.967-.935.31-.552.471-1.169.481-1.852-.004-.111.041-.189.135-.234l-.002-.011z"/><path fill="#bbf330" style="fill:var(--color5,#bbf330)" d="M33.157 19.973a.916.916 0 0 0-.643.602c-1.911 5.65-7.264 9.719-13.571 9.719a14.284 14.284 0 0 1-9.867-3.935.915.915 0 0 0-.848-.232c-.641.158-.883.934-.408 1.392a15.988 15.988 0 0 0 11.122 4.48c7.097 0 13.116-4.605 15.224-10.986.207-.626-.369-1.199-1.009-1.041zM4.187 14.15a.907.907 0 0 0 .667-.725c1.214-6.664 7.058-11.72 14.089-11.72 4.571 0 8.641 2.137 11.262 5.464.22.279.58.414.925.328.585-.144.85-.825.48-1.301A16.01 16.01 0 0 0 18.942-.002c-7.903 0-14.47 5.711-15.786 13.224-.104.592.446 1.07 1.03.926z"/><path fill="#bbf330" style="fill:var(--color5,#bbf330);stroke:var(--color5,#bbf330)" stroke="#bbf330" stroke-linejoin="round" stroke-width=".627" d="M43.041 5.332c-3.787 7.241-5.45 2.465-10.782 5.271.533-8.406 6.18-3.291 10.782-5.271z"/></symbol><symbol id="icon-menu" viewBox="0 0 32 32"><path fill="#7eb101" style="fill:var(--color2,#7eb101)" d="M2.666 8A1.335 1.335 0 0 1 4 6.666h24A1.33 1.33 0 0 1 29.333 8 1.333 1.333 0 0 1 28 9.334H4A1.335 1.335 0 0 1 2.666 8zm0 8.043A1.33 1.33 0 0 1 4 14.71h24a1.333 1.333 0 1 1 0 2.666H4a1.333 1.333 0 0 1-1.334-1.333zM4 22.752a1.337 1.337 0 0 0-1.334 1.333A1.33 1.33 0 0 0 4 25.418h24a1.333 1.333 0 1 0 0-2.666H4z"/></symbol><symbol id="icon-read" viewBox="0 0 32 32"><path d="M21.624 15.195a.843.843 0 0 1 0 1.192l-8.592 8.592a.843.843 0 0 1-1.192 0l-.397-.397a.843.843 0 0 1 0-1.192l7.599-7.599-7.599-7.599a.843.843 0 0 1 0-1.192l.397-.397a.843.843 0 0 1 1.192 0l8.592 8.592z"/></symbol><symbol id="icon-frame" viewBox="0 0 32 32"><path fill="none" stroke="#ff705d" style="stroke:var(--color1,#ff705d)" stroke-linejoin="round" stroke-linecap="round" stroke-width="2.286" d="M16 11.429v6.857m.002 8a1.143 1.143 0 1 0 0-2.287 1.143 1.143 0 0 0 0 2.287z"/><path fill="none" stroke="#ff705d" style="stroke:var(--color1,#ff705d)" stroke-linejoin="round" stroke-linecap="round" stroke-width="2.286" d="M18.036 2.4a2.286 2.286 0 0 0-4.068 0L1.397 27.543a2.281 2.281 0 0 0 .094 2.224 2.287 2.287 0 0 0 1.941 1.09h25.143a2.28 2.28 0 0 0 1.941-1.09 2.292 2.292 0 0 0 .093-2.224L18.038 2.4z"/></symbol><symbol id="icon-star" viewBox="0 0 36 32"><path fill="#ffe550" style="fill:var(--color1,#ffe550)" d="M17.157 1.037c.593-1.383 2.611-1.383 3.204 0l3.498 8.164c.25.583.815.982 1.463 1.032l9.079.707c1.538.12 2.162 1.983.99 2.958l-6.918 5.752a1.656 1.656 0 0 0-.559 1.67l2.113 8.6c.358 1.457-1.275 2.609-2.592 1.828l-7.773-4.609a1.781 1.781 0 0 0-1.809 0l-7.773 4.609c-1.317.781-2.95-.371-2.592-1.828l2.113-8.6a1.656 1.656 0 0 0-.559-1.67l-6.918-5.752c-1.172-.975-.548-2.838.99-2.958l9.079-.707a1.73 1.73 0 0 0 1.463-1.032l3.498-8.164z"/></symbol><symbol id="icon-close-7" viewBox="0 0 11 11"><path d="M11 1.108 9.892 0 5.5 4.392 1.108 0 0 1.108 4.392 5.5 0 9.892 1.108 11 5.5 6.608 9.892 11 11 9.892 6.608 5.5 11 1.108Z"/></symbol><symbol id="icon-person" viewBox="0 0 18 18"><path d="M9 9a3 3 0 1 0 0-6 3 3 0 1 0 0 6Zm0 1.5c-2.003 0-6 1.005-6 3v.75c0 .412.337.75.75.75h10.5c.412 0 .75-.338.75-.75v-.75c0-1.995-3.998-3-6-3Z"/></symbol><symbol id="icon-phone" viewBox="0 0 18 18"><path d="m13.996 11.123-1.838-.21a1.441 1.441 0 0 0-1.187.412l-1.332 1.332a10.888 10.888 0 0 1-4.769-4.77L6.21 6.55a1.44 1.44 0 0 0 .412-1.187l-.21-1.824a1.448 1.448 0 0 0-1.44-1.28H3.72c-.818 0-1.498.68-1.448 1.498.384 6.18 5.327 11.115 11.5 11.499.817.05 1.498-.63 1.498-1.448v-1.252a1.434 1.434 0 0 0-1.274-1.432Z"/></symbol><symbol id="icon-email" viewBox="0 0 18 18"><path d="M15 3H3c-.825 0-1.492.675-1.492 1.5l-.008 9c0 .825.675 1.5 1.5 1.5h12c.825 0 1.5-.675 1.5-1.5v-9c0-.825-.675-1.5-1.5-1.5Zm-.3 3.188L9.398 9.502a.759.759 0 0 1-.796 0L3.3 6.188a.637.637 0 1 1 .675-1.08L9 8.25l5.025-3.143a.637.637 0 1 1 .675 1.08Z"/></symbol><symbol id="icon-unchecked" viewBox="0 0 16 15"><path d="M14.222 1.667v11.666H1.778V1.667h12.444Zm0-1.667H1.778C.8 0 0 .75 0 1.667v11.666C0 14.25.8 15 1.778 15h12.444C15.2 15 16 14.25 16 13.333V1.667C16 .75 15.2 0 14.222 0Z"/></symbol><symbol id="icon-checked" viewBox="0 0 16 15"><rect width="16" height="15" rx="2"/><path d="m3.957 7.752-.069-.066-.069.065-.888.842-.076.072.076.073 3.496 3.334.069.066.069-.066 7.504-7.158.076-.073-.076-.072-.882-.841-.069-.066-.069.066-6.553 6.246-2.539-2.422Z" fill="#fff" stroke="#fff" stroke-width=".2"/></symbol><symbol id="icon-send" viewBox="0 0 512 512"><path d="m511.6 36.86-64 415.1a32.008 32.008 0 0 1-31.65 27.147c-4.188 0-8.319-.815-12.29-2.472l-122.6-51.1-50.86 76.29C226.3 508.5 219.8 512 212.8 512c-11.5 0-20.8-9.3-20.8-20.8v-96.18c0-7.115 2.372-14.03 6.742-19.64L416 96 122.3 360.3 19.69 317.5C8.438 312.8.812 302.2.062 289.1s5.47-23.72 16.06-29.77l448-255.1c10.69-6.109 23.88-5.547 34 1.406S513.5 24.72 511.6 36.86z"/></symbol><symbol id="circle-unchecked" viewBox="0 0 180 180"><circle r="84" cx="90" cy="90" fill="transparent" stroke="#FFE550" stroke-width="10"/></symbol><symbol id="circle-checked" viewBox="0 0 180 180"><circle r="84" cx="90" cy="90" fill="transparent" stroke="#BBF330" stroke-width="10"/></symbol></defs></svg>