<?xml version="1.0" standalone="no"?>
<!DOCTYPE svg PUBLIC "-//W3C//DTD SVG 20010904//EN"
 "http://www.w3.org/TR/2001/REC-SVG-20010904/DTD/svg10.dtd">
<svg version="1.0" xmlns="http://www.w3.org/2000/svg"
 width="700.000000pt" height="700.000000pt" viewBox="0 0 700.000000 700.000000"
 preserveAspectRatio="xMidYMid meet">
<metadata>
Created by potrace 1.14, written by Peter Selinger 2001-2017
</metadata>
<g transform="translate(0.000000,700.000000) scale(0.100000,-0.100000)"
fill="#000000" stroke="none">
<path d="M3215 6989 c-732 -64 -1410 -343 -1965 -810 -134 -113 -345 -325
-452 -455 -384 -466 -646 -1039 -747 -1634 -36 -214 -46 -332 -46 -590 0 -145
6 -303 13 -365 99 -844 449 -1561 1043 -2140 570 -555 1262 -881 2074 -977
167 -19 597 -16 770 6 530 67 985 225 1425 493 228 140 412 284 618 487 580
569 923 1267 1028 2091 25 195 25 615 0 810 -78 610 -285 1149 -628 1628 -215
300 -517 602 -814 815 -487 347 -1043 560 -1659 632 -126 15 -528 21 -660 9z
m656 -384 c882 -108 1666 -573 2179 -1295 667 -937 763 -2174 249 -3201 -314
-628 -799 -1109 -1431 -1419 -438 -215 -871 -314 -1373 -313 -392 0 -730 60
-1078 189 -751 280 -1357 824 -1715 1541 -482 963 -432 2109 132 3027 305 497
743 899 1265 1160 381 191 783 299 1231 330 103 7 416 -4 541 -19z"/>
<path d="M3341 5889 c-132 -34 -257 -121 -328 -227 -21 -31 -110 -198 -197
-370 -175 -344 -218 -405 -340 -483 -95 -63 -151 -77 -515 -135 -391 -62 -403
-65 -489 -105 -136 -65 -254 -201 -303 -350 -33 -102 -34 -262 -2 -364 38
-120 86 -181 378 -475 248 -251 275 -282 308 -350 47 -96 67 -176 67 -266 0
-39 -23 -212 -50 -385 -65 -406 -66 -426 -46 -529 42 -204 178 -366 371 -441
65 -26 99 -33 180 -37 152 -7 184 4 580 202 198 99 374 180 405 188 79 18 223
15 295 -6 33 -10 211 -94 395 -187 193 -98 360 -176 395 -184 76 -19 204 -19
280 0 155 39 312 160 383 292 40 77 72 197 72 276 0 32 -25 216 -55 407 -30
191 -55 372 -55 401 0 83 26 184 67 268 34 69 62 101 323 366 245 249 291 300
323 361 46 89 67 176 67 279 0 258 -170 493 -410 565 -36 11 -218 44 -406 74
-187 30 -362 62 -390 71 -84 29 -156 76 -229 149 -67 68 -78 86 -250 421 -171
333 -183 353 -250 421 -149 151 -365 208 -574 153z"/>
</g>
</svg>
